<?xml version="1.0"?>
<svg xmlns="http://www.w3.org/2000/svg" version="1.2" baseProfile="tiny" width="800" height="458" viewBox="0 0 800 458" stroke-linecap="round" stroke-linejoin="round">
<g id="states">
<path d="M 780.89 380.47 781.98 378.91 791.76 377 784.15 380.73 780.89 380.47 Z M 770.02 396.34 771.83 394.6 775.82 395.99 775.82 400.33 773.64 397.29 770.02 396.34 Z M 762.78 387.75 768.57 386.37 764.23 390.09 762.78 387.75 Z M 575.5 440.47 577.31 446.27 574.05 449.66 560.29 456.42 556.3 456.5 557.39 452.17 560.65 450.78 562.1 443.5 575.5 440.47 Z M 342.95 116.13 348.74 111.8 346.93 115.7 342.95 116.13 Z M 334.98 114.49 339.33 111.02 342.59 111.45 334.98 114.49 Z M 1 278.08 12.95 273.49 32.15 263.86 42.66 255.98 53.52 251.64 62.94 249.47 66.93 243.4 71.64 240.28 73.08 235.77 86.12 230.92 93.01 226.24 91.56 219.3 86.85 215.83 87.57 212.11 85.04 208.9 76.71 205.86 77.07 197.89 70.55 196.59 73.81 189.91 72 179.08 70.91 177.95 81.05 176.04 94.82 172.4 115.1 168.32 129.59 166.59 141.55 166.42 155.31 167.2 168.35 166.5 199.5 170.15 207.84 171.79 213.27 175.87 221.6 179.86 225.95 180.72 240.44 176.47 253.11 176.39 268.69 175.35 276.3 176.99 284.63 177.08 289.7 174.91 300.57 173.18 307.09 169.71 310.35 169.63 317.23 162.69 328.1 157.14 331.72 156.45 338.6 151.77 343.67 151.33 350.92 152.63 357.08 150.99 360.34 146.39 361.06 138.85 357.8 123.24 350.56 119.77 354.54 115.44 359.61 114.49 360.34 117.35 367.94 113.79 366.86 110.06 359.97 105.99 352 107.29 353.82 104.78 348.38 100.35 342.95 100.27 343.31 93.33 349.11 83.36 355.99 82.93 364.32 79.29 364.32 75.13 370.84 73.22 380.62 68.45 383.88 68.88 389.68 66.37 398.73 59.87 400.18 55.88 404.53 51.46 419.38 40.97 430.61 32.3 450.89 20.07 450.53 19.03 475.16 9.58 484.58 4.21 491.1 4.21 499.07 1 508.85 3.51 515.73 2.65 548.7 3.34 567.9 3.43 606.65 2.21 615.35 2.3 649.04 1.43 649.4 10.88 646.86 13.48 645.41 18.95 650.12 23.89 646.5 28.66 645.78 36.63 644.33 39.32 645.78 45.39 652.66 53.02 654.11 59 649.76 65.94 652.3 75.82 650.85 78.94 643.96 84.4 642.15 92.12 639.26 98.97 642.52 101.31 642.15 110.24 645.78 116.05 643.96 121.6 648.31 126.54 642.52 134.95 639.98 144.83 643.6 147.08 646.14 141.36 653.02 141.36 653.74 145.96 658.45 148.47 657.73 178.21 655.56 214.79 655.56 221.21 654.11 224.42 657 230.05 644.69 262.39 632.37 296.64 634.55 300.28 631.29 336.86 629.47 362.44 628.03 376.4 634.91 384.81 610.28 396.08 617.52 404.92 617.16 407.78 614.62 411.42 607.02 415.06 606.29 421.91 601.58 421.74 604.84 426.94 611.36 419.4 615.35 420.7 618.97 417.06 626.58 414.72 633.1 414.54 634.55 411.68 642.52 414.28 643.24 410.73 646.5 413.16 653.74 413.85 660.26 415.84 668.6 413.42 669.32 409.69 675.48 408.99 679.1 410.04 706.27 409.78 720.4 408.04 725.47 406.48 736.33 401.02 739.59 397.55 743.94 396.42 748.65 392.09 756.26 390.27 760.6 390.44 754.08 394.95 750.82 395.47 756.26 398.16 758.07 401.97 764.23 403.01 768.21 400.85 774.01 407.09 779.44 405.61 787.77 401.45 788.5 399.02 794.65 398.07 799 399.11 797.19 400.93 772.92 409.08 744.67 419.75 726.55 425.12 697.21 433.18 678.01 439.95 662.44 443.5 652.66 444.54 650.48 443.24 627.3 448.44 605.21 447.57 588.54 452.34 589.63 449.05 581.3 449.22 582.38 447.05 578.4 443.67 580.94 440.64 578.04 437.52 580.21 435.61 581.66 429.98 586.01 424.34 593.25 408.13 592.16 406.48 544.35 385.15 512.47 370.15 507.76 365.39 508.13 362.79 502.33 363.48 501.24 361.57 492.19 361.83 492.91 360.27 487.48 357.41 483.49 357.84 483.13 354.9 474.08 345.1 476.97 344.06 476.25 330.27 471.18 328.45 474.08 325.68 470.45 321.43 460.67 318.48 455.24 318.83 452.34 310.16 450.53 310.51 445.46 305.39 406.7 305.57 345.48 305.48 305.28 305.13 267.24 305.39 179.22 305.48 118.73 305.31 90.83 305.57 1.36 305.48 1 305.31 1 278.08 Z" id="36"/>
</g>
</svg>